<?xml version="1.0" encoding="UTF-8" standalone="no"?>
<!-- Created with Inkscape (http://www.inkscape.org/) -->

<svg
   xmlns:dc="http://purl.org/dc/elements/1.1/"
   xmlns:cc="http://creativecommons.org/ns#"
   xmlns:rdf="http://www.w3.org/1999/02/22-rdf-syntax-ns#"
   xmlns:svg="http://www.w3.org/2000/svg"
   xmlns="http://www.w3.org/2000/svg"
   xmlns:sodipodi="http://sodipodi.sourceforge.net/DTD/sodipodi-0.dtd"
   xmlns:inkscape="http://www.inkscape.org/namespaces/inkscape"
   width="1024"
   height="1024"
   viewBox="0 0 270.93333 270.93334"
   version="1.1"
   id="svg8"
   sodipodi:docname="icon.svg"
   inkscape:version="0.92.4 (5da689c313, 2019-01-14)"
   inkscape:export-filename="icon.png"
   inkscape:export-xdpi="90"
   inkscape:export-ydpi="90">
  <defs
     id="defs2" />
  <sodipodi:namedview
     id="base"
     pagecolor="#ffffff"
     bordercolor="#666666"
     borderopacity="1.0"
     inkscape:pageopacity="0.0"
     inkscape:pageshadow="2"
     inkscape:zoom="0.24748737"
     inkscape:cx="-207.05898"
     inkscape:cy="463.81336"
     inkscape:document-units="px"
     inkscape:current-layer="layer1"
     showgrid="false"
     units="px"
     inkscape:window-width="1280"
     inkscape:window-height="961"
     inkscape:window-x="-8"
     inkscape:window-y="-8"
     inkscape:window-maximized="1" />
  <metadata
     id="metadata5">
    <rdf:RDF>
      <cc:Work
         rdf:about="">
        <dc:format>image/svg+xml</dc:format>
        <dc:type
           rdf:resource="http://purl.org/dc/dcmitype/StillImage" />
        <dc:title />
      </cc:Work>
    </rdf:RDF>
  </metadata>
  <g
     inkscape:label="Layer 1"
     inkscape:groupmode="layer"
     id="layer1"
     transform="translate(0,-26.066658)">
    <rect
       style="opacity:1;fill:#000000;fill-opacity:1;stroke:none;stroke-width:4.82390213;stroke-linecap:round;stroke-miterlimit:4;stroke-dasharray:none;stroke-dashoffset:0;stroke-opacity:1;paint-order:fill markers stroke"
       id="rect834"
       width="270.93335"
       height="270.93335"
       x="-8.8817842e-16"
       y="26.066666" />
    <path
       style="opacity:1;fill:#f47920;fill-opacity:1;stroke:none;stroke-width:3.77952743;stroke-linecap:round;stroke-miterlimit:4;stroke-dasharray:none;stroke-dashoffset:0;stroke-opacity:1;paint-order:fill markers stroke"
       d="M 867.54492,293.88672 622.9043,339.48828 587.7793,707.625 717.46094,670.19141 867.82031,293.95312 Z"
       transform="matrix(0.26458333,0,0,0.26458333,0,26.066658)"
       id="path820"
       inkscape:connector-curvature="0"
       sodipodi:nodetypes="cccccc" />
    <path
       style="opacity:1;fill:#fba919;fill-opacity:1;stroke:none;stroke-width:3.77952743;stroke-linecap:round;stroke-miterlimit:4;stroke-dasharray:none;stroke-dashoffset:0;stroke-opacity:1;paint-order:fill markers stroke"
       d="M 542.30859,377.53711 386.83594,475.64648 437.35742,835.60742 537.64453,731.53516 Z"
       transform="matrix(0.26458333,0,0,0.26458333,0,26.066658)"
       id="path818"
       inkscape:connector-curvature="0"
       sodipodi:nodetypes="ccccc" />
    <path
       inkscape:connector-curvature="0"
       style="opacity:1;fill:#ffffff;fill-opacity:1;stroke:none;stroke-width:0.99999994;stroke-linecap:round;stroke-miterlimit:4;stroke-dasharray:none;stroke-dashoffset:0;stroke-opacity:1;paint-order:fill markers stroke"
       d="m 185.60055,46.301598 c -0.53,-0.0012 -1.51275,0.18015 -2.90214,0.469222 -9.80121,2.039206 -30.48029,13.262099 -38.9475,21.13721 l -8.36486,7.779887 -5.46375,-4.026111 c -5.43542,-4.005075 -22.30817,-9.127453 -24.11636,-7.321516 -0.52142,0.520769 0.92557,1.912607 3.21531,3.093353 4.90815,2.531109 12.18427,8.912775 12.18427,10.686684 0,0.683864 -3.81013,1.615596 -8.46667,2.070158 -17.702862,1.728293 -41.683391,18.267609 -54.544469,37.619405 -9.770689,14.70176 -15.41508,33.54195 -15.41508,51.45216 0,14.70976 4.159541,34.33076 6.917407,32.6285 0.770586,-0.47568 3.635084,-4.08383 6.364986,-8.01812 4.420306,-6.37057 4.84025,-8.18109 3.835424,-16.54472 -3.598132,-29.94797 14.133623,-62.10885 41.878062,-75.95557 13.20653,-6.591159 20.36178,-6.954332 28.52436,-1.447977 l 6.05648,4.085537 6.04149,-4.085537 c 7.32884,-4.956048 14.65241,-5.130538 24.67188,-0.588076 6.64635,3.013253 8.81609,3.182663 18.26968,1.426783 5.9002,-1.095898 10.72751,-2.464971 10.72751,-3.042188 0,-1.759109 -16.45598,-11.768511 -24.54423,-14.929321 -4.18626,-1.635914 -10.43034,-2.974496 -13.87616,-2.974496 -5.41494,0 -6.0387,-0.422781 -4.59455,-3.115572 2.56465,-4.781989 18.03293,-19.434545 26.98181,-25.559163 5.32028,-3.641228 6.92157,-4.837417 5.5671,-4.840532 z"
       id="path822" />
    <path
       inkscape:connector-curvature="0"
       style="opacity:1;fill:#ffffff;fill-opacity:1;stroke:none;stroke-width:0.99999994;stroke-linecap:round;stroke-miterlimit:4;stroke-dasharray:none;stroke-dashoffset:0;stroke-opacity:1;paint-order:fill markers stroke"
       d="m 226.99958,145.55859 c -2.64548,-0.34763 -13.02154,25.14309 -15.02544,37.45508 -5.24956,32.25469 -32.94286,58.2081 -66.96542,62.75844 -12.33346,1.64957 -14.78678,2.61987 -20.61011,8.14782 -3.63565,3.45121 -6.19544,6.94538 -5.68803,7.76542 0.50727,0.81997 8.15337,1.49086 16.9907,1.49086 12.40959,0 19.08921,-1.01282 29.33774,-4.44882 30.25358,-10.14315 50.3027,-30.24247 60.56994,-60.72136 4.20383,-12.47941 4.64443,-16.04953 3.94395,-31.96911 -0.43384,-9.85645 -1.43333,-18.96208 -2.22105,-20.23494 -0.0908,-0.14672 -0.20218,-0.2263 -0.33228,-0.24339 z"
       id="path816" />
    <path
       style="opacity:1;fill:#ffcb08;fill-opacity:1;stroke:none;stroke-width:3.77952743;stroke-linecap:round;stroke-miterlimit:4;stroke-dasharray:none;stroke-dashoffset:0;stroke-opacity:1;paint-order:fill markers stroke"
       d="m 323.58398,564.46484 -118.11132,146.30274 156.91015,265.94922 43.15625,-104.10352 -81.6875,-308.05469 -0.26758,-0.0937 z"
       transform="matrix(0.26458333,0,0,0.26458333,0,26.066658)"
       id="rect847"
       inkscape:connector-curvature="0"
       sodipodi:nodetypes="ccccccc" />
  </g>
</svg>
